<svg xmlns="http://www.w3.org/2000/svg" viewBox="0 0 512 512" width="512" height="512">
  <defs>
    <linearGradient id="bgGrad" x1="0" y1="0" x2="1" y2="1">
      <stop offset="0%" stop-color="#1a1a1a"/>
      <stop offset="100%" stop-color="#0d0d0d"/>
    </linearGradient>
    <linearGradient id="textGrad" x1="0" y1="0" x2="1" y2="0">
      <stop offset="0%" stop-color="#4ec9b0"/>
      <stop offset="100%" stop-color="#2ea889"/>
    </linearGradient>
  </defs>

  <!-- Background circle -->
  <circle cx="256" cy="256" r="248" fill="url(#bgGrad)" stroke="#4ec9b0" stroke-width="2"/>

  <!-- 3D Cube - Top face (F4 - UI & UX) - Purple -->
  <polygon points="176,96 256,56 336,96 256,136" fill="#9b59b6" stroke="#1a1a1a" stroke-width="3"/>
  <polygon points="186,106 256,71 326,106 256,141" fill="#8e44ad" stroke="none" opacity="0.5"/>

  <!-- 3D Cube - Left face (F5 - Security) - Blue -->
  <polygon points="176,96 176,216 96,256 96,136" fill="#3498db" stroke="#1a1a1a" stroke-width="3"/>
  <polygon points="186,106 186,216 101,252 101,141" fill="#2980b9" stroke="none" opacity="0.5"/>

  <!-- 3D Cube - Right face (F3 - Network) - Green -->
  <polygon points="336,96 336,216 256,256 256,136" fill="#2ecc71" stroke="#1a1a1a" stroke-width="3"/>
  <polygon points="326,106 326,216 251,252 251,141" fill="#27ae60" stroke="none" opacity="0.5"/>

  <!-- 3D Cube - Bottom face (F0 - Kernel) - Orange/Red -->
  <polygon points="96,256 176,296 256,256 176,216" fill="#e74c3c" stroke="#1a1a1a" stroke-width="3"/>
  <polygon points="101,252 176,289 251,252 176,215" fill="#c0392b" stroke="none" opacity="0.5"/>

  <!-- 3D Cube - Bottom right (F1 - Processes) - Yellow -->
  <polygon points="256,256 336,296 336,216 256,256" fill="#f1c40f" stroke="#1a1a1a" stroke-width="3"/>
  <polygon points="251,252 326,289 326,216 251,252" fill="#f39c12" stroke="none" opacity="0.5"/>

  <!-- 3D Cube - Bottom left (F2 - Storage) - Teal -->
  <polygon points="96,256 176,296 176,376 96,336" fill="#1abc9c" stroke="#1a1a1a" stroke-width="3"/>
  <polygon points="101,252 176,289 176,366 101,329" fill="#16a085" stroke="none" opacity="0.5"/>

  <!-- Grid lines on top face -->
  <line x1="216" y1="78" x2="216" y2="118" stroke="#1a1a1a" stroke-width="2" opacity="0.6"/>
  <line x1="296" y1="78" x2="296" y2="118" stroke="#1a1a1a" stroke-width="2" opacity="0.6"/>
  <line x1="186" y1="106" x2="326" y2="106" stroke="#1a1a1a" stroke-width="2" opacity="0.6"/>
  <line x1="186" y1="121" x2="326" y2="121" stroke="#1a1a1a" stroke-width="2" opacity="0.6"/>

  <!-- Grid lines on left face -->
  <line x1="156" y1="136" x2="116" y2="176" stroke="#1a1a1a" stroke-width="2" opacity="0.6"/>
  <line x1="136" y1="176" x2="96" y2="216" stroke="#1a1a1a" stroke-width="2" opacity="0.6"/>
  <line x1="176" y1="136" x2="136" y2="176" stroke="#1a1a1a" stroke-width="2" opacity="0.6"/>
  <line x1="156" y1="176" x2="116" y2="216" stroke="#1a1a1a" stroke-width="2" opacity="0.6"/>

  <!-- Grid lines on right face -->
  <line x1="296" y1="136" x2="296" y2="216" stroke="#1a1a1a" stroke-width="2" opacity="0.6"/>
  <line x1="256" y1="176" x2="256" y2="256" stroke="#1a1a1a" stroke-width="2" opacity="0.6"/>
  <line x1="296" y1="176" x2="296" y2="256" stroke="#1a1a1a" stroke-width="2" opacity="0.6"/>

  <!-- Center dot -->
  <circle cx="256" cy="256" r="8" fill="#4ec9b0"/>
  <circle cx="256" cy="256" r="5" fill="#2ea889"/>

  <!-- Text: RUBIK -->
  <text x="256" y="430" text-anchor="middle" font-family="'Segoe UI', 'Helvetica Neue', Arial, sans-serif" font-size="52" font-weight="800" letter-spacing="6" fill="url(#textGrad)">RUBIK</text>

  <!-- Text: OS -->
  <text x="256" y="470" text-anchor="middle" font-family="'Segoe UI', 'Helvetica Neue', Arial, sans-serif" font-size="24" font-weight="300" letter-spacing="12" fill="#888">O S</text>

  <!-- Subtitle -->
  <text x="256" y="492" text-anchor="middle" font-family="'Segoe UI', 'Helvetica Neue', Arial, sans-serif" font-size="10" letter-spacing="4" fill="#555">OPTIMIZED · DECENTRALIZED · EFFICIENT</text>
</svg>
